<mxfile host="Electron" modified="2024-03-09T03:32:35.966Z" agent="Mozilla/5.0 (Windows NT 10.0; Win64; x64) AppleWebKit/537.36 (KHTML, like Gecko) draw.io/23.1.5 Chrome/120.0.6099.109 Electron/28.1.0 Safari/537.36" etag="Y-_JH6iGv7jsqXm7Fv7M" version="23.1.5" type="device">
  <diagram name="Page-1" id="eF9CoDDYWW2r-anySZwX">
    <mxGraphModel dx="785" dy="2705" grid="1" gridSize="10" guides="1" tooltips="1" connect="1" arrows="1" fold="1" page="1" pageScale="1" pageWidth="850" pageHeight="1100" math="0" shadow="0">
      <root>
        <mxCell id="0" />
        <mxCell id="1" parent="0" />
        <mxCell id="kGD5VDKbIppjMghZSTM3-1" value="isValidTime(jam_masuk, menit_masuk, jam_keluar, menit_keluar, sign)" style="strokeWidth=2;html=1;shape=mxgraph.flowchart.start_1;whiteSpace=wrap;" vertex="1" parent="1">
          <mxGeometry x="280" y="-2180" width="230" height="80" as="geometry" />
        </mxCell>
        <mxCell id="kGD5VDKbIppjMghZSTM3-2" value="jam_masuk &amp;lt; 24 &lt;br&gt;&amp;amp;&amp;amp; menit_masuk &amp;lt; 60 &lt;br&gt;&amp;amp;&amp;amp; jam_keluar &amp;lt; 24 &lt;br&gt;&amp;amp;&amp;amp; menit_keluar &amp;lt; 60 &lt;br&gt;&amp;amp;&amp;amp; sign == &#39;:&#39; ?" style="strokeWidth=2;html=1;shape=mxgraph.flowchart.decision;whiteSpace=wrap;" vertex="1" parent="1">
          <mxGeometry x="282.5" y="-2050" width="225" height="200" as="geometry" />
        </mxCell>
        <mxCell id="kGD5VDKbIppjMghZSTM3-3" style="edgeStyle=orthogonalEdgeStyle;rounded=0;orthogonalLoop=1;jettySize=auto;html=1;exitX=0.5;exitY=1;exitDx=0;exitDy=0;exitPerimeter=0;entryX=0.5;entryY=0;entryDx=0;entryDy=0;entryPerimeter=0;" edge="1" parent="1" source="kGD5VDKbIppjMghZSTM3-1" target="kGD5VDKbIppjMghZSTM3-2">
          <mxGeometry relative="1" as="geometry" />
        </mxCell>
        <mxCell id="kGD5VDKbIppjMghZSTM3-5" value="return 1" style="strokeWidth=2;html=1;shape=mxgraph.flowchart.start_1;whiteSpace=wrap;" vertex="1" parent="1">
          <mxGeometry x="280" y="-1800" width="230" height="80" as="geometry" />
        </mxCell>
        <mxCell id="kGD5VDKbIppjMghZSTM3-6" style="edgeStyle=orthogonalEdgeStyle;rounded=0;orthogonalLoop=1;jettySize=auto;html=1;exitX=0.5;exitY=1;exitDx=0;exitDy=0;exitPerimeter=0;entryX=0.5;entryY=0;entryDx=0;entryDy=0;entryPerimeter=0;" edge="1" parent="1" source="kGD5VDKbIppjMghZSTM3-2" target="kGD5VDKbIppjMghZSTM3-5">
          <mxGeometry relative="1" as="geometry" />
        </mxCell>
        <mxCell id="kGD5VDKbIppjMghZSTM3-10" value="Ya" style="edgeLabel;html=1;align=center;verticalAlign=middle;resizable=0;points=[];" vertex="1" connectable="0" parent="kGD5VDKbIppjMghZSTM3-6">
          <mxGeometry x="-0.1818" y="-1" relative="1" as="geometry">
            <mxPoint as="offset" />
          </mxGeometry>
        </mxCell>
        <mxCell id="kGD5VDKbIppjMghZSTM3-7" value="return 0" style="strokeWidth=2;html=1;shape=mxgraph.flowchart.start_1;whiteSpace=wrap;" vertex="1" parent="1">
          <mxGeometry x="30" y="-1900" width="230" height="80" as="geometry" />
        </mxCell>
        <mxCell id="kGD5VDKbIppjMghZSTM3-8" style="edgeStyle=orthogonalEdgeStyle;rounded=0;orthogonalLoop=1;jettySize=auto;html=1;exitX=0;exitY=0.5;exitDx=0;exitDy=0;exitPerimeter=0;entryX=0.5;entryY=0;entryDx=0;entryDy=0;entryPerimeter=0;" edge="1" parent="1" source="kGD5VDKbIppjMghZSTM3-2" target="kGD5VDKbIppjMghZSTM3-7">
          <mxGeometry relative="1" as="geometry" />
        </mxCell>
        <mxCell id="kGD5VDKbIppjMghZSTM3-9" value="Tidak" style="edgeLabel;html=1;align=center;verticalAlign=middle;resizable=0;points=[];" vertex="1" connectable="0" parent="kGD5VDKbIppjMghZSTM3-8">
          <mxGeometry x="-0.1539" y="1" relative="1" as="geometry">
            <mxPoint as="offset" />
          </mxGeometry>
        </mxCell>
      </root>
    </mxGraphModel>
  </diagram>
</mxfile>
